<?xml version="1.0" encoding="UTF-8" standalone="no"?>
<svg
   xmlns="http://www.w3.org/2000/svg"
   width="445.37781"
   height="445.57339"
   viewBox="0 0 445.37781 445.57339">
  <g
     transform="translate(-13.346495,-15.689479)">
    <g>
      <path
         id="path849"
         fill="hsl(180, 66%, 49%)"
         d="M 265.0293,161.5 252.44141,174 c -20.34398,20.2012 -24.68436,34.3962 -13.56446,44.36523 27.01296,24.21721 34.03802,49.85132 21.18555,77.31641 -6.9631,14.87982 -69.91184,78.63639 -85.0625,86.1543 -65.00771,32.25748 -119.220452,-47.87239 -68.28516,-100.92969 13.71794,-14.28943 14.11714,-15.37231 10.2793,-27.90625 -2.97969,-9.73133 -4.76932,-19.2095 -6.04102,-31.98438 -1.82731,-18.35619 -9.392,-25.50639 -20.751948,-19.61523 C 86.197161,203.47683 49.286035,241.31861 42.796875,250 20.272996,280.13311 11.786668,322.62055 21.027344,359 33.632256,408.62404 76.093695,447.64648 126,455.47266 183.61495,464.50769 226.33099,440.47912 300.375,357.38281 351.53007,299.97375 343.88035,214.37618 283.3418,166.80078 276.96297,161.78785 276.28092,161.5 270.8125,161.5 Z" />
      <path
         display="inline" fill="hsl(195, 40%, 42%)"
         d="m 197.5,315.27672 c -3.38496,-0.83148 -16.31257,-11.2983 -23.84489,-19.30598 C 135.94534,255.88113 127.32805,196.95894 152.06814,148.36616 172.03577,109.14712 248.70381,38.383152 284,26.594152 393.93975,-10.125956 493.45475,106.71228 439.70147,209.39959 c -10.02077,19.14313 -52.71194,65.43145 -61.90798,67.12435 -9.99706,1.84035 -14.53166,-4.10076 -16.44364,-21.544 -0.80078,-7.30566 -3.03689,-19.39794 -4.96912,-26.87175 -4.64399,-17.96273 -4.78627,-17.4419 8.62319,-31.56768 54.00949,-56.89463 -14.40187,-144.884017 -75.81681,-97.514137 -8.94114,6.896367 -71.10918,70.461517 -74.50123,76.175487 -14.79101,24.91575 -9.80156,58.49904 11.47263,77.22069 9.53955,8.39496 10.80893,9.80001 11.66948,12.91665 2.90297,10.51368 -1.90239,20.70166 -17.15897,36.37926 -13.11917,13.4812 -16.18321,15.27425 -23.16902,13.55826 z"
         id="path847" />
    </g>
  </g>
</svg>
